<svg version="1" xmlns="http://www.w3.org/2000/svg" width="853.333" height="853.333" viewBox="0 0 640.000000 640.000000"><path d="M331.6 77.1c-6.9 1.1-18.4 7-24.5 12.5-2.8 2.5-6.7 7.2-8.7 10.5l-3.7 5.9H110v421h157v7.3c0 6.2.5 8.3 3 13.3 5.3 10.5 14.6 15.4 29.1 15.4 21.1 0 39.5-13.6 46.3-34.2.5-1.7 5.8-1.8 92.6-1.8h92V106H373v-4.3c-.1-11.2-11.3-21.9-26-24.7-6-1.1-8.4-1.1-15.4.1zM162 134v25l-24.7-.2-24.8-.3-.3-24.8-.2-24.7h50v25zm52 0v25h-49v-50h49v25zm52.8-.3l-.3 24.8-24.7.3-24.8.2v-50h50l-.2 24.7zm25.6-20c-3.4 11.1-5.6 24.8-6.7 40.8l-.2 4-8.2.3-8.3.3V109h24.9l-1.5 4.7zM423 134v25h-21.7c-14.3 0-22.8-.4-25-1.2l-3.3-1.2V109h50v25zm52 0v25l-24.7-.2-24.8-.3-.3-24.8-.2-24.7h50v25zm52.8-.3l-.3 24.8-24.7.3-24.8.2-.1-23.2c0-12.8-.2-24.1-.4-25.1-.3-1.6 1.4-1.7 25.1-1.7H528l-.2 24.7zm-158 24.5c-.7.4-12 .8-25 .8H321v-21c0-11.6.2-21 .5-21s4.2 1.9 8.8 4.2c6.7 3.3 9.5 4.2 15.3 4.6 6.1.4 8 .1 12.6-2 3.2-1.5 6.9-4.2 8.9-6.6l3.4-4.1.3 22.1c.2 17.1-.1 22.3-1 23zm-51.3-20.6c0 20.6 0 20.9-2.2 21.2-2.3.3-2.8-1-5.8-18.6-1.7-9.8-1.9-15.1-.5-18.6.9-2.5 5.6-5.8 7.5-5.2.6.2 1 8.1 1 21.2zM162 186v25l-24.7-.2-24.8-.3-.3-24.8-.2-24.7h50v25zm52 0v25l-24.7-.2-24.8-.3-.3-24.8-.2-24.7h50v25zm53-17.4v7.5l-17.7 17.5-17.8 17.4h-7.2c-4 0-7.3-.3-7.3-.8 0-.4-.1-11.6-.3-25l-.2-24.2H267v7.6zm18.8-2.9l-.3 4.7-7.5 2.3c-4.1 1.2-7.8 2.3-8.2 2.3-.5 0-.8-3.2-.8-7v-7h17.1l-.3 4.7zM319 163c0 1.3-.7 2-2 2s-2-.7-2-2 .7-2 2-2 2 .7 2 2zm30.9-1.6c-.2.2-5.1.9-10.9 1.5-5.8.7-12.2 1.5-14.2 1.8-3.4.5-3.8.3-3.8-1.6 0-2 .4-2.1 14.7-2.1 8 0 14.4.2 14.2.4zm73.1 16.1c0 9.1-.4 16.5-.8 16.5s-2.6-1.8-4.7-4.1c-5.2-5.4-19.3-17.3-27.5-23.3-3.6-2.6-6.7-5-6.9-5.2-.2-.2 8.6-.4 19.7-.4H423v16.5zm52 8.5v25h-36.7l-6.6-6.9-6.7-6.9v-17.4c0-9.6.3-17.8.7-18.1.3-.4 11.6-.7 25-.7H475v25zm52.8-.3l-.3 24.8-24.7.3-24.7.2-.3-22.7c-.2-12.6-.2-23.8 0-25.1l.3-2.2H528l-.2 24.7zm-143.6-17.5c30.7 21.8 58.9 52.1 84.2 90.5 9.8 14.9 12.6 22.9 12.8 36.8.2 11.5-1.8 17.3-10.5 29.6-9.3 13.1-19.8 22.9-32.4 30.3-.8.4-3.9-4.7-9.6-16.1-8.4-16.9-43.9-75-54.3-88.9-13.9-18.6-26-29.4-40.8-36.6-2.5-1.2-4.6-2.6-4.6-3.1 0-2.7 44.4-47.7 47-47.7.6 0 4.3 2.3 8.2 5.2zm-18.2-3.8c0 .3-4.9 5.3-10.9 11.1-6 5.9-15.3 15.6-20.7 21.6-5.4 6-9.9 10.7-10 10.6-.6-.6-7.7-36.8-7.3-37.1.2-.2 10.8-1.7 23.4-3.4 27.1-3.5 25.5-3.3 25.5-2.8zm-79.6 13.8c.3 1.8 1.5 17.7 2.6 35.3 1.1 17.6 2.2 33.2 2.5 34.7.3 1.9-.5 4.1-2.9 7.5-5.3 7.7-18.9 30.9-24.9 42.3-12.3 23.5-24.1 51.9-32.3 77.5-2.6 8.2-5 15.4-5.4 15.8-.8.9-32-1.9-37.5-3.4-13.7-3.8-19.5-11.7-19.5-26.3.2-36.1 12.4-75.1 33.5-106.6 14.6-21.8 52.3-63.2 67.2-73.8 2.5-1.8 12.3-5.6 15.5-6.1.4-.1.9 1.4 1.2 3.1zM162 238v25h-50v-50h50v25zm52-16.4c0 9.6-.2 10-8 20.4-3.2 4.1-7.6 10.5-9.9 14.2l-4.3 6.8H165v-50h49v8.6zm15-8c0 1-11 13.4-11.9 13.4-.5 0-.7-9.5-.2-13.3.1-.9 12.1-1 12.1-.1zm245.9 22.6c0 22.2-.1 23.2-1.7 20.8-7.4-10.8-18.6-26-24.8-33.6-4.1-5.1-7.4-9.4-7.4-9.8 0-.3 7.7-.6 17-.6h17l-.1 23.2zm52.9 2.1l.2 24.7-25.2-.2-25.3-.3.2-7.5c0-4.1.1-15.3.2-24.8l.1-17.2 24.8.2 24.7.3.3 24.8zM334 219.1c7.8 4.1 20.4 14.3 26.6 21.5 9.4 11 10.4 12.7 10.4 17.7v4.7h-36.7l-.6-3.3c-1.6-9.3-6.8-38.6-7.3-41-.7-3.5.4-3.5 7.6.4zm43 43.1c0 .5-.9.8-2 .8-1.6 0-2-.7-2-3.3v-3.2l2 2.5c1.1 1.4 2 2.8 2 3.2zm-85.4.5c-1 1-1.9-.5-1-1.8.6-1.1.8-1.1 1.2 0 .2.7.1 1.5-.2 1.8zM162 290v25h-50v-24.3c0-13.4.3-24.7.7-25 .3-.4 11.6-.7 25-.7H162v25zm28-24.6c0 .2-2.7 5.9-5.9 12.7-5.5 11.6-13.1 32.1-13.1 35.4 0 1-1.1 1.5-3.5 1.5H164v-24.3c0-13.4.3-24.7.7-25 .6-.7 25.3-1 25.3-.3zM294.1 285c1 10.7 2 21.9 2.2 24.7l.6 5.3H269v-17.1l9.1-15.7c5-8.6 9.6-16 10.2-16.4 3.6-2.4 4.1-.7 5.8 19.2zm76.9 5v25h-14.4c-12.9 0-14.5-.2-15-1.8-.2-.9-1.2-7.3-2.1-14.2-.9-6.9-2.3-16.7-3.1-21.7-.8-5.1-1.4-10-1.4-10.8 0-1.3 2.6-1.5 18-1.5h18v25zm22.1-2.3c7.8 12.6 14.9 23.8 15.7 25l1.4 2.3H373v-24.3c0-13.4.3-24.7.7-25 .3-.4 1.7-.7 2.9-.7 1.9 0 4.7 4 16.5 22.7zm134.7 2.5l.2 24.8h-22.5c-12.4 0-22.5-.4-22.5-.9s.7-2.8 1.5-5.1 1.5-7.5 1.5-11.4c0-7.9-3.1-23.9-5.5-28.5-.8-1.7-1.5-3.3-1.5-3.6 0-.3 10.9-.4 24.3-.3l24.2.3.3 24.7zM267 309.5v5.5h-6.8l3-5.5c1.6-3 3.1-5.5 3.4-5.5.2 0 .4 2.5.4 5.5zm-.5 33v25l-13.7.3c-7.6.1-13.8-.1-13.8-.6 0-1.1 10.1-27 14.5-37.2 5.1-11.9 5.8-12.8 9.7-12.6l3.3.2v24.9zm104.5.6V368h-12.5c-6.9 0-12.5-.3-12.5-.8 0-.4-.6-7.9-1.4-16.7-.8-8.8-1.7-19.8-2.1-24.5l-.6-8.5 14.5.3 14.6.3v25zm42.4-22.9c1 1.3 3.6 5.8 5.7 10l3.9 7.8v25.1l-4.7 2.2c-4.4 2-6.3 2.2-24.8 2.2h-20l-.3-24c-.1-13.2-.1-24.4.2-25 .2-.6 7.1-.9 19.2-.8 18.3.2 19 .3 20.8 2.5zM162 343v25l-24.7-.2-24.8-.3-.3-24.8-.2-24.7h50v25zm7-23.8c0 2.2-3.1 21.3-4 24.3-.5 2-.8-1.6-.9-11.3L164 318h2.5c1.4 0 2.5.5 2.5 1.2zm128.5 1c1.1 5 6.2 46.4 5.8 47.1-.3.4-8.1.7-17.4.7l-16.9-.2V318h14c13.7 0 14 0 14.5 2.2zm230.3 22.5l-.3 24.8-24.7.2c-22.7.2-24.8.1-24.8-1.5-.7-22.9.2-34.2 3.6-46.5.5-1.6 2.5-1.7 23.5-1.7H528l-.2 24.7zm-53.3-12.5c-.5 1.4-14.7 65.9-16.5 75.2-2.8 13.9-9.6 23.2-25.9 35.3-5 3.7-8.8 5.1-35.6 13.1-16.5 5-32.7 9.7-36 10.6-19 4.7-48.6 6.7-98.4 6.6l-33.4-.1-6.5-6.7c-7.8-8.1-18.9-22.7-26.8-35.4-6-9.8-17.8-33.3-18.9-38.1l-.7-2.8 5.3 2.2c6.7 2.6 26.4 5.4 47.9 6.9 9.1.6 22.4 1.5 29.5 2 25 1.7 37.2.5 86-8.5 47.8-8.8 84.1-21.7 105.2-37.4 7.5-5.5 23.3-21.3 23.3-23.2 0-.5.4-.9 1-.9.5 0 .7.6.5 1.2zM433 358.1c0 .3-1.6 1.3-3.5 2.2L426 362v-8.8l.1-8.7 3.4 6.5c1.9 3.6 3.4 6.8 3.5 7.1zm42.6-5.5c-.3.9-.6 4.7-.6 8.6 0 6.1-.2 6.9-1.7 6.6-2.1-.4-2.1-.3-.4-9.6.8-3.9 1.8-7.2 2.4-7.2.5 0 .6.7.3 1.6zM162 395v25h-50v-50h50v25zm105-13.1c0 6.6-.3 12.2-.7 12.4-.9.4-34.6-1.4-35.2-1.9-.3-.3 2.8-10.3 5.6-18.2l1.6-4.2H267v11.9zm37.4-10.2c.9 3.6 2.8 19.4 2.3 19.9-1.4 1.5-9.5 2.5-22.9 3.1l-14.8.6V370h17.4c15.8 0 17.5.2 18 1.7zm66.6 3.6v5.3l-11.5 2.3c-6.4 1.3-11.7 2.2-11.9 2-.2-.2-.6-3.7-.9-7.7l-.6-7.2H371v5.3zm21.9-1.2c-6.4 2.1-13.5 4.1-15.8 4.5l-4.1.7V370l15.8.1 15.7.1-11.6 3.9zM475 395v25h-8.1c-8 0-8.1 0-7.5-2.3 1.7-5.8 4.7-18.6 7.7-32.5 3-14.4 3.3-15.2 5.5-15.2h2.4v25zm52.8-.3l-.3 24.8-24.7.3c-21.6.2-24.8 0-24.8-1.3V395v-23.5c0-1.3 3.5-1.5 25-1.5h25l-.2 24.7zm-352.4 5.5c2.5 5.9 5.5 12.2 6.6 14 3.4 5.5 3 5.8-7.5 5.8H165v-47.5l2.9 8.5c1.6 4.7 5 13.3 7.5 19.2zM162 447v25h-50v-50h50v25zm29-16.5c5.2 8.6 14.9 22.3 20.2 28.3 2.3 2.6 2.8 4.2 2.8 8.2v5h-49v-50h20.9l5.1 8.5zM475 447v25h-50v-20.9l5.3-3.5c9.3-6.2 17.1-13 22.2-19.4l4.9-6.2H475v25zm52.5 0v24.5l-24.7.3-24.7.2-.3-24.6c-.2-13.5-.1-24.8.1-25 .3-.2 11.5-.3 25-.2l24.6.3V447zM423 461.5V472h-50.1l.3-3.1.3-3.2 23.5-7.2c12.9-4 24.1-7.4 24.8-7.4.9-.1 1.2 2.6 1.2 10.4zm-203 7l3.4 3.5h-3.7c-3.6 0-3.7-.1-3.7-3.5 0-1.9.1-3.5.3-3.5.2 0 1.8 1.6 3.7 3.5zm151 1c0 2.5 0 2.5-9.7 2.5-5.3 0-9.4-.3-9-.6.8-.8 13.6-4.1 16.5-4.3 1.7-.1 2.2.4 2.2 2.4zM162 499v25h-50v-24.3c0-13.4.3-24.7.7-25 .3-.4 11.6-.7 25-.7H162v25zm51.4-23.4c.3.9.6 12.1.6 25V524h-50v-24.3c0-13.4.3-24.7.7-25 .3-.4 11.3-.7 24.4-.7 20.7 0 23.8.2 24.3 1.6zm34.9-.5c8.6 0 16.3.2 17.2.5 1.3.5 1.5 4.1 1.5 24.5V524h-51v-50.3l8.3.7c4.5.4 15.3.7 24 .7zm78.6 15.9c4.1 19.2 4.4 21.5 3.1 25.5-1.2 3.7-4.3 6.5-7.2 6.5-1.7 0-1.8-1.7-1.8-23.8 0-31.1.7-32 5.9-8.2zm44.1 8v25h-12c-6.6 0-12-.1-12-.3 0-.1.9-4.5 2-9.7 1.1-5.3 2.3-15.7 2.6-23.5.3-7.7.7-14.6 1-15.3.2-.8 3-1.2 9.4-1.2h9v25zm52 0v25h-50v-50h50v25zm52 0v25h-49v-50h49v25zm52.8.2l.2 24.8h-50v-50l24.8.2 24.7.3.3 24.7zm-208.8-.7c0 12.9-.3 23.5-.8 23.5-.4 0-4-2-8-4.5s-9.5-5-12.3-5.6c-9.5-2.1-20.5 1.3-26 8.1l-2.9 3.5v-23.7c0-18 .3-23.7 1.3-24.1.6-.3 11.9-.5 25-.6l23.7-.1v23.5z"/></svg>